<?xml version="1.0" encoding="UTF-8"?>
<svg id="Calque_1" data-name="Calque 1" xmlns="http://www.w3.org/2000/svg" viewBox="0 0 178.97 178.42">
  <defs>
    <style>
      .cls-1 {
        fill: #1d1d1b;
        stroke-width: 0px;
      }
    </style>
  </defs>
  <path class="cls-1" d="m175.13,43.09c-9.83-17.94-26.69-30.99-48.76-37.71C109.38.2,94.37.21,90.17.33c-.23,0-.46.02-.69.02-.21,0-.44-.02-.67-.02-4.21-.12-19.21-.13-36.2,5.04C30.55,12.1,13.67,25.14,3.85,43.09,1.33,47.67,0,52.88,0,58.19v62.69C0,126.19,1.33,131.41,3.85,136c9.83,17.94,26.7,30.98,48.76,37.7,3.7,1.12,7.3,2,10.73,2.69,3.98.81,7.71,1.33,11.04,1.71v-94.08h-21.81c-2.07-4.45-6.59-7.53-11.83-7.53-7.2,0-13.03,5.83-13.03,13.05s5.83,13.03,13.03,13.03c5.24,0,9.74-3.07,11.83-7.51h10.76v70c-16.89-3.78-37.99-12.85-49.81-34.38-1.63-2.97-2.48-6.36-2.48-9.81v-62.69c0-3.45.85-6.84,2.48-9.79C32.65,13.51,76.13,11.34,86.65,11.34c.81,0,1.43.02,1.82.03.67.02,1.35.02,2.04,0,5.5-.16,54.36-.54,74.93,37.02,1.63,2.96,2.48,6.34,2.48,9.79v62.69c0,3.45-.85,6.84-2.48,9.81-11.86,21.66-33.15,30.7-50.09,34.44v-70.07h10.76c2.09,4.44,6.59,7.51,11.82,7.51,7.21,0,13.06-5.83,13.06-13.03s-5.85-13.05-13.06-13.05c-5.23,0-9.73,3.07-11.82,7.53h-21.81v94.1c3.32-.35,7.07-.87,11.04-1.66,3.5-.69,7.21-1.59,11.01-2.76,22.07-6.72,38.93-19.75,48.76-37.7,2.51-4.58,3.85-9.81,3.85-15.12v-62.69c0-5.31-1.33-10.52-3.85-15.1ZM40.9,95.16c-3.11,0-5.62-2.51-5.62-5.64s2.51-5.62,5.62-5.62,5.64,2.51,5.64,5.62-2.51,5.64-5.64,5.64Zm96.89-11.26c3.12,0,5.64,2.51,5.64,5.62s-2.51,5.64-5.64,5.64-5.62-2.51-5.62-5.64,2.51-5.62,5.62-5.62Z"/>
  <path class="cls-1" d="m83.82,166.42v11.62c1.21.05,2.27.06,3.18.06.95,0,1.73,0,2.3-.03.46,0,.91,0,1.37,0,.91.03,2.34.05,4.2,0v-94.06h-11.04v82.4Z"/>
</svg>